ply
format ascii 1.0
element vertex 20
property float x
property float y
property float z
end_header
-0.09516664997911568 1.031008118590863 0.7231105806996183
-0.3427738049610298 -0.3457018077759809 0.6290174111871993
0.23775981644666727 -0.08350733885480774 -0.026124234390399566
-0.09332845066228113 -0.36772448791936246 0.6025721335602598
0.3479550267269218 -0.09260276387912836 0.043366813129464485
0.2280867124902333 -0.27442851548283015 0.37044829171497096
0.6598800797921038 -0.05296030523629572 0.2940455963770911
-0.30372498463128794 -0.22838221980363527 0.16312333789656894
-0.03282599690284631 0.04041402185918137 -0.24551664803075995
-0.16168904638691828 -0.08164074830665052 -0.10616122791538915
0.03344845479234227 0.1401144122847543 -0.3278647694034286
-0.09862207862287163 -0.008984288705841253 -0.19309382642828968
-0.019008320057249808 0.06174666741543832 -0.2668869407776125
-0.10670388715431389 -0.023500627700388636 -0.17983163295980845
-0.053477289812722074 0.013439609818454995 -0.21745310730813414
-0.09595109509543524 -0.016040572830155635 -0.18939886308898737
0.014308912052425446 0.11469683959344751 -0.30983806137254105
-0.03606692860491013 0.07107810188601946 -0.2680194967677855
0.026096654668085594 0.1341542931747 -0.3232338717376574
-0.10819712409779654 -0.03117838812778131 -0.17226148438438244
