ply
format ascii 1.0
element vertex 20
property float x
property float y
property float z
end_header
-0.12627282690050434 0.7970045078733142 0.985356169998892
-0.3218189522843897 -0.5494025198268925 0.592451769550623
0.47417225459812945 0.08805296645892097 -0.04397964161895412
-0.0008672657118207796 -0.4119668923540121 0.2743236183301831
0.39763872423353697 -0.04249485466390833 0.003307171166398177
0.33857957450791165 -0.2505039057154787 0.1786007559011011
0.5468270697631695 -0.18357089049777436 0.25070323098171393
-0.0972661034039762 0.047206601511744224 -0.19030055132462897
-0.18124044795487718 -0.10467141586102162 -0.08499468816303757
-0.10490412496759254 0.035758667558797384 -0.1838854511115328
-0.16318392750150662 -0.07217383234645891 -0.10944860222911797
-0.2683759886849614 -0.2534381505105912 0.05901956337163126
-0.014014916722745132 0.19197529804009877 -0.252785103779186
-0.01691751256911613 0.1922319492489569 -0.25939881837628054
-0.09316202401219122 0.05713658528441773 -0.19643666972732232
0.028542238609351876 0.2728229377397883 -0.28307817710177796
-0.04615499262262085 0.13816502809899098 -0.23729356852679412
-0.08666879555968049 0.07148874404012545 -0.20381313595885522
-0.09076035646803449 0.06394668570825011 -0.19967081664353584
-0.1741516263480827 -0.08756750978726786 -0.09867705473952
