ply
format ascii 1.0
element vertex 20
property float x
property float y
property float z
end_header
-0.06055372917818031 0.8696744752516385 0.9518385494363301
-0.3614513228309573 -0.37268203123417515 0.3321509526687541
0.007872168523279712 -0.32128281454531316 0.2032271043220519
-0.039422333678427034 -0.3177583409967718 0.1851577812407528
0.1618768711343356 -0.33445441434407 0.2524646245907066
0.17934392188550616 -0.3314354489275993 0.25472924921492385
0.3700427888022239 -0.32569145985594666 0.35244484035794515
-0.1791538731107096 -0.05231734132732341 -0.1046405373190668
-0.10517712000096646 0.014735122689354094 -0.15815889405382247
-0.06684122887261924 0.03673980318747158 -0.1743815040957307
-0.16578871233475992 -0.03356118552772846 -0.11617623161601608
-0.09705268413578982 0.011558166050002684 -0.15798510817138484
-0.039775749430448815 0.06619026671606125 -0.1955139149069824
0.05683952010830966 0.155342769022332 -0.24231116700846775
0.16666526193865813 0.2541680830220247 -0.2724143232484966
0.2189075610810904 0.31228728111093296 -0.2876573542178541
0.09999228447595296 0.1938840366298712 -0.25719807730027233
0.006070066899290099 0.11094602974520364 -0.2204413120557492
-0.0846415067725341 0.02473706794327718 -0.1676311600104246
-0.0677521845032549 0.03891993539075646 -0.17750351782719848
