ply
format ascii 1.0
element vertex 20
property float x
property float y
property float z
end_header
-0.4837262645797281 0.9778077857635099 0.6001058532382532
-0.14333434897503305 -0.3423852986757836 0.9114309637381586
0.27005788962337635 0.35106157610900995 -0.36092961627958775
0.038635300550221956 -0.31850566808698944 0.5370644406735606
0.33308597786388255 0.2085754793402913 -0.20728039443513008
0.4964997614504933 -0.009827955002389534 0.46894906581771795
0.638541054601052 0.2138215294427937 0.298594749476992
-0.04887256489818341 0.052769088703510374 -0.32562795639717285
-0.09877397793546015 -0.13269029904841992 -0.13752684023711528
-0.08199196906008759 -0.07230374457898797 -0.21040216280558216
-0.163692161807163 -0.30858725119281755 0.1661155245582727
-0.10932159056566133 -0.1660909393233046 -0.08963508277146622
-0.07538992395140628 -0.04855780969948025 -0.22834003462045463
-0.05328660688143925 0.05225450864092172 -0.2931052890068474
-0.060390954140085995 0.01182936180691652 -0.28280200637594555
-0.11027073664418045 -0.16476808723161435 -0.09624486476948925
-0.04631164121291368 0.06214737167639067 -0.33096999469027605
-0.09895417333706148 -0.12687967521334503 -0.14581026180514117
-0.1236989282566167 -0.18409819366026892 -0.04443655168671911
-0.0788041418440053 -0.05557177976994178 -0.22914954162202625
