ply
format ascii 1.0
element vertex 20
property float x
property float y
property float z
end_header
-0.19786104478028244 0.9056357367664033 0.8677985870636846
-0.23727048876842288 -0.47790665548084293 0.6090279434795054
0.35443948547089243 0.10674073175185879 -0.11027857265337516
-0.03543517719835522 -0.4412236807267237 0.48637055748963487
0.5684911147598549 0.28230915961356146 -0.10182687587537903
0.2801186591838043 -0.3028295585560632 0.3473876740596744
0.44563781249247614 -0.2042306337888552 0.321372530673489
0.0009707864591554109 0.14272679847780348 -0.2753020192180859
-0.13020541423025606 -0.07629281585351037 -0.11727955964320301
-0.07091675018815878 0.021748463634315124 -0.19812896915667438
-0.05840300958239827 0.036079197309127065 -0.20715266734728885
-0.07355447542474736 -0.004999577987824374 -0.16822528918505278
-0.1045241860311517 0.014446593104252243 -0.1963173731178649
-0.1609930405879489 -0.10190063978928954 -0.09838195102009219
-0.0670498397687829 0.03696511488878293 -0.21219792455198913
-0.04712588097236925 0.07099299138627628 -0.23576473236297674
-0.03976953069845139 0.09711794141378699 -0.2534976968009493
-0.1520355742772484 -0.07158280688206256 -0.12700568657005384
-0.14254473655674665 -0.031881200181520554 -0.15593936353074106
-0.13196870930086207 -0.0019151590994754537 -0.17465861173226185
