ply
format ascii 1.0
element vertex 20
property float x
property float y
property float z
end_header
-0.46718000478606764 1.02958841781925 0.5373302442115445
-0.07882945225996017 -0.26211985194296694 0.8680108050345616
0.29480852565246474 0.46803874550092284 -0.4602603929699329
0.11133994510361694 -0.23140325826689695 0.4655039190832376
0.3500861756761484 0.29849209830514123 -0.30354177705432944
0.3653282182922043 -0.08729402635885834 0.4192257228834461
0.6320521213331575 0.19494990342215987 0.3375225579067147
-0.10912919229839742 -0.18412318830923527 -0.04155970339229813
-0.08274109321313823 -0.08832570131032083 -0.19005778058531037
-0.11603028656276741 -0.19746628896605184 -0.017069932494541466
-0.08623025115104657 -0.10357588419429048 -0.16130377337735297
-0.11448068671009258 -0.22724613970795843 0.08269244807516661
-0.11691264049328284 -0.20421146326285342 -0.005484107124386144
-0.07697949432318638 -0.044802576278128635 -0.251200703618073
-0.1108372588709588 -0.18708140569844123 -0.03933588443574741
-0.07341144922760032 0.00969457382960866 -0.28690589371213887
-0.08399975975415042 -0.05859185979616536 -0.22842317116886657
-0.09097414054303242 -0.1010867104464713 -0.177434556805236
-0.0924878832128168 -0.11050765227979485 -0.16462289795508042
-0.05339139265109351 0.08707226794135071 -0.38308512250137833
