ply
format ascii 1.0
element vertex 20
property float x
property float y
property float z
end_header
-0.1868574763745134 0.7445241290519962 1.0172744100596072
-0.11297946242454844 -0.546364612254407 0.46689528064252867
0.28959808847145785 0.10864111151237492 -0.11798209204936785
0.02527231722234378 -0.4635090205062557 0.31383516036991044
0.3655269796902037 -0.05466280065479844 0.01960088056422175
0.23556701742767838 -0.4214016468038269 0.3405412295423082
0.6287769772966679 0.2108131771075244 0.04065924520523371
-0.16922975063738832 -0.21193651826940837 -0.006505160868703243
-0.11078252202155048 -0.012846497738841075 -0.14647819378390453
-0.043522843003612775 0.2021730471173888 -0.230866065731169
-0.14571088588187373 -0.13162620510015788 -0.06946523238062653
-0.01509360221296492 0.2888326994445611 -0.2735313858604767
-0.09618947218954688 0.034579102038732566 -0.17469275361412906
-0.08555088923869289 0.06747669704386548 -0.19312846216026938
-0.1443224910785077 -0.1251102606792993 -0.07706210779075034
-0.028023304252069923 0.2492680708735447 -0.26394739880800694
-0.07793615760986984 0.09345291795359056 -0.20079610363785608
-0.08772059877335295 0.06123563655160907 -0.18971020740764102
-0.11229274250358563 -0.01916776030197331 -0.14596749807611678
-0.128529181906275 -0.07437126638622192 -0.10867354421479271
