ply
format ascii 1.0
element vertex 20
property float x
property float y
property float z
end_header
0.02943307920670268 1.040961044374265 0.6967275893448555
-0.389637711455452 -0.27323776652348225 0.9400425835037327
0.4006532616826964 -0.004388777610807426 -0.12464527791446789
-0.022782812026552322 -0.3561364426906913 0.5475244600838375
0.26150595427847756 -0.2167654523979511 0.15856367720215517
0.33491663211821365 -0.27800485058704466 0.3627626798595069
0.592680448331055 -0.09234044315558022 0.15246650914217594
-0.0014307197492843629 0.09892392025069989 -0.3102528007579248
-0.06421521022358245 0.03607176388665895 -0.24781570898996752
-0.019516018027865446 0.07839423534100907 -0.28542187058712104
-0.015627786588158967 0.08362491881782798 -0.2919415285475446
-0.07996658865802285 0.020940106211550166 -0.2305106797412056
0.009462389623718818 0.10909239440661445 -0.31362872160301725
-0.02358194958240256 0.0758265545986126 -0.28452843053241983
-0.2631619912122664 -0.12863465688344428 0.001472701934895419
-0.13533975353059105 -0.027304898648121627 -0.17327995051165104
-0.1588627449742581 -0.04729447488682627 -0.14523596306425463
-0.21777501853214737 -0.09537620752547603 -0.06645725985900178
-0.12510735729165393 -0.01781044390790189 -0.1861533186822295
-0.11164610338862622 -0.006540523069910727 -0.1996886902803514
