ply
format ascii 1.0
element vertex 20
property float x
property float y
property float z
end_header
-0.159431899964048 -0.4659815682792443 1.1750768141498678
-0.17508615896473376 0.6715972178971041 0.3598487395899242
0.31808972731127655 -0.12980001323328164 -0.07958406148693808
0.08246388323905457 0.38324773069986484 0.0798428820011521
0.3556125845858582 0.14098863745478402 0.032541134559048765
0.3385971831184475 0.342801260910571 0.14052083113066832
0.6114317880353691 -0.08747624146057972 0.08840852224150385
-0.19095996163901754 0.1959994669235103 -0.05986513213570289
-0.10980782332331836 -0.04083022715768369 -0.1455188793538179
-0.0013191348049292032 -0.3768897895772045 -0.1803275841749909
-0.1947719257001765 0.2033489818858251 -0.055575360038126485
-0.025459270610497367 -0.297815843396838 -0.18947022650489975
-0.15242779655698588 0.07490686262019895 -0.11271987296640036
-0.05263475807679265 -0.22229169358401488 -0.1844535151983835
-0.02737581710574101 -0.30306103771042936 -0.18129011992229851
-0.08803927435613461 -0.12361168850008122 -0.16771608138306546
-0.09150974247324356 -0.12280616309334727 -0.16188015533415046
-0.12205961701769816 -0.023902013422083836 -0.14518322169421405
-0.1514943501662756 0.06947163612408408 -0.11482380730016592
-0.1638176355304148 0.11210448489884686 -0.09783090617901172
