ply
format ascii 1.0
element vertex 20
property float x
property float y
property float z
end_header
-0.24979932746120107 0.7799361749515586 0.6833857499154885
-0.1156301866656378 -0.10624670891584559 0.6107549095292117
0.24648213055184306 0.05476413859900621 -0.1896917495388501
0.08511095341847905 -0.13125702694112212 0.3675553714375836
0.29015616298444497 -0.03079372552318212 0.054340875594022134
0.2626927525128409 -0.08885329968262197 0.3105615481343681
0.5982919090767712 0.09382949699954499 0.1487449349934145
-0.13701928618496584 -0.10833547893066911 0.050546592442581965
-0.08593642832328964 -0.04085007250836012 -0.18555901580003972
-0.11282472240240873 -0.07748184355163915 -0.053269630785977566
-0.08531774403962955 -0.04875907459988839 -0.1786838195237179
-0.0989452847317074 -0.06898246249366069 -0.09362809448795568
-0.07125663949204414 -0.023604717669440493 -0.2018613811461284
-0.09025051124704725 -0.04806713948259611 -0.13468646248325
-0.0762452535035315 -0.039526695531566375 -0.19768471007541316
-0.07436125446378809 -0.024819160232850457 -0.18546931319533538
-0.06696696461553028 -0.02223405692879302 -0.2172479933020112
-0.07825202344209037 -0.025318064520612308 -0.19020981877569898
-0.07286252243530172 -0.030174411642144256 -0.19859078009435568
-0.06706575953620592 -0.013225871395117193 -0.19930721283793718
