ply
format ascii 1.0
element vertex 20
property float x
property float y
property float z
end_header
-0.03819945189118508 0.8304359310242355 0.683659915699244
0.016959175243211982 -0.1011731504874147 0.6308626577839227
0.04638208728113858 -0.10277796969591307 0.1466641351108211
0.02605025552472885 -0.14494601679442493 0.2942728831310029
0.06866788907079532 -0.13881700885610507 0.2810255903762302
0.07016622507365045 -0.1377991977541151 0.27145711799195793
0.1442192053407318 -0.07660717593956504 0.2720582425689453
-0.040931647593106434 -0.053286374034105216 -0.10286962576371478
-0.02949700674657476 -0.01250718674514066 -0.1914058797325484
-0.03891219096410622 -0.02004579908254555 -0.17022710942642705
-0.03376777066939216 -0.005434537159114459 -0.1958173352571318
-0.021870908619971933 -0.0012587279540372625 -0.2142510564274953
-0.016540645216184764 0.012759679316928039 -0.23996244546392756
-0.02362757890929753 -0.00807931607327514 -0.20536017400010653
-0.018643898861381375 -0.0009641536225473397 -0.22249600700862193
-0.019355207053029313 -0.002746336365086525 -0.2129207676069197
-0.021223828576413948 0.000566764652427927 -0.22225384529433478
-0.01844416549746223 -0.0037031263174719976 -0.21593367105765474
-0.02421517685315474 -0.0163673055087352 -0.19411748432061282
-0.027215360082996597 -0.017248992603993926 -0.19238514130262988
