ply
format ascii 1.0
element vertex 20
property float x
property float y
property float z
end_header
-0.06927465772468795 0.9493030220952969 0.6178633283886094
-0.20941455809100143 -0.1567923233120736 0.7503322579621788
0.17858627445922307 -0.09217640227654875 0.07767576220714939
-2.0283853523107516e-05 -0.1981566843144216 0.4581536784378921
0.22516637658271127 -0.11965645959833252 0.19411444909975614
0.1951081222636008 -0.16780048783413504 0.35251859453287965
0.4730707073946996 -0.03622811118224158 0.2229950565462731
-0.14991474858576737 -0.09454104541256514 -0.02165186046650531
-0.07826278529475708 -0.02798628519374876 -0.1731951712000241
-0.06782885453384539 -0.025130264055277005 -0.1868201425647449
-0.054661255576583884 -0.008830598623450186 -0.21316307193494918
-0.06036458480971867 -0.009398142414231214 -0.2144594795723806
-0.033219537500914983 0.017443820878545162 -0.25429780420075565
-0.053671965876048666 -0.008471310290877897 -0.22602291545746392
-0.04715114949823951 -0.004392315581034772 -0.23501362003437584
-0.03896000844352479 0.009752548069701057 -0.24544311723690432
-0.047600543744314716 0.001870484499556596 -0.23781510752841623
-0.0574782549252706 -0.011357418656407034 -0.22352002288923334
-0.05288603702239295 -0.00845695272392106 -0.22362203107723572
-0.05122225521964329 -0.008995074073832746 -0.21862878301175012
