ply
format ascii 1.0
element vertex 20
property float x
property float y
property float z
end_header
-0.09323296678252975 0.2263696127681187 1.0247417447475842
-0.022101243076659314 0.16384664716458863 0.2740474159600558
0.10942558880053381 -0.044622953319669235 0.0005611420166679296
0.05709300548757115 0.07447979185939117 0.1385330250150072
0.16980525171552163 -0.010757940742690937 0.035694656931862086
0.16632665773521813 0.08055509992733619 0.13433624072744432
0.36458322199092785 0.08098846259931942 0.18360133720248506
-0.08493101295200893 -0.007401138573097007 -0.07661713468241992
-0.05739967439888474 -0.05789958262278071 -0.15865048922575636
-0.06796651460403216 -0.014944235181663237 -0.10514654572856696
-0.047969780206596466 -0.061707849377642426 -0.16577050931515472
-0.0656744611044447 -0.01815353932274115 -0.11724516148906815
-0.05319243088866532 -0.06432311130221559 -0.16209843975369756
-0.061275478147235454 -0.03517046541022334 -0.12645838688334646
-0.047965091365063856 -0.05539543392533924 -0.16081696603562048
-0.05642985753493596 -0.041682363629914794 -0.13324490769611994
-0.04728476072254288 -0.058623892790697296 -0.15954241990672854
-0.05286551794134654 -0.04616841880845805 -0.13962372593299963
-0.054765533895792036 -0.06126676755884219 -0.1519761421182879
-0.05417940210903388 -0.048121921752779 -0.1343247338333401
