ply
format ascii 1.0
element vertex 20
property float x
property float y
property float z
end_header
-0.15754683080311577 0.4835018476440255 0.8981154994273884
-0.10298233667844137 0.02890294775910043 0.49168300270284915
0.20529956003009966 -0.02443584517712479 -0.06303649355126902
0.0746607841206091 -0.047471820567467016 0.26281100903457777
0.26240128142737384 -0.0396581791910912 0.020417848879647156
0.2236511014498385 -0.03889447019164632 0.22909163385741257
0.5308338426739349 0.03466219798343429 0.14511378234157915
-0.12700491833942848 -0.053163781468293946 -0.026674128663510228
-0.0704275215095521 -0.04511763088218832 -0.17264609653805166
-0.09025168747901893 -0.033587315220916195 -0.12649835176688337
-0.0711963102078618 -0.039315409161552226 -0.15896312309638314
-0.093042722199699 -0.03523060145811116 -0.1238272007419233
-0.07290218651455456 -0.033219786695171706 -0.1733336612885178
-0.08297966388498802 -0.033762461248758015 -0.14615858240335267
-0.07005171555352062 -0.030962842910600048 -0.18067760964262455
-0.07569725632273502 -0.01425036549178978 -0.16807995557639954
-0.06049832196442566 -0.015622958151871506 -0.18987431756272463
-0.07517772552056565 -0.013431035786625634 -0.1673218749990034
-0.07154199917456788 -0.028006655178031553 -0.17898644367539043
-0.0755453735493816 -0.020935834605320426 -0.17115493673742124
