ply
format ascii 1.0
element vertex 20
property float x
property float y
property float z
end_header
-0.06909093898183093 0.5978334816082401 0.7634892824946293
0.008723016720426118 0.030428898461348778 0.5057078853389667
0.09922618425337908 -0.013967509428861049 0.0018015387461517787
0.07322038804058661 -0.02486040684034178 0.20436327533045123
0.1318238594290377 -0.016905100611367026 0.12268076699719506
0.1625399513495754 0.0028885057906858002 0.19435247790050858
0.2645000285404488 0.05558090380470643 0.15795145846719363
-0.06208072994486409 -0.05062199251768955 -0.08480188905084522
-0.05802737740420388 -0.04533845296673246 -0.14210843139351273
-0.06355284131752681 -0.05198301823761816 -0.11747418465467553
-0.05009881705330536 -0.04181875527263685 -0.16279579578762562
-0.045606097249602476 -0.03655093524015267 -0.14753199630155805
-0.04732798152332282 -0.04044634945766146 -0.16786021035628262
-0.05340087564854953 -0.04415851340396193 -0.15335360815180882
-0.04286424395178172 -0.04654216696572749 -0.1723527836521204
-0.04724526302004403 -0.04904148185278895 -0.16301843436832666
-0.045567492027843846 -0.052712335115566 -0.1658172056832824
-0.05189836771617565 -0.05758147659065231 -0.16196511024893442
-0.052023667394406795 -0.05995589990252185 -0.1531582914315746
-0.05124873509999571 -0.05424739526070189 -0.15810874419454896
