ply
format ascii 1.0
element vertex 20
property float x
property float y
property float z
end_header
-0.15189505070752635 1.2104035864378966 0.33739661101163393
-0.14415384050429877 -0.14504335680406552 0.7396599588397499
0.2721176035474043 0.1334990792304112 -0.3966713781855932
0.05027227178910579 -0.15536996080671592 0.6526946131154419
0.2104056492922021 -0.14543206931037939 0.3005483682411716
0.2994762934999188 -0.11431661437438996 0.28310810415824295
0.6472357057345401 0.09686623209457615 0.08872291123862319
-0.21097635009183835 -0.1995498517608298 0.3633980175709409
-0.10544950527234688 -0.11065665819760412 -0.10839155485293755
-0.16188375155274096 -0.17133900375286787 0.10015939092667768
-0.15988140833600523 -0.17426055200065396 0.1212912003002508
-0.08627319049799037 -0.07244519589742222 -0.19874583691592193
-0.09896217693318116 -0.09571283828193247 -0.14826340785206152
-0.09428697963827583 -0.08540799218455808 -0.17022036397355875
-0.06422658657162741 -0.03549400646387355 -0.270401865597774
-0.01836008784132398 0.0780815009157111 -0.4125645005444155
-0.05877300213564469 -0.017124627048955655 -0.2969095172807304
-0.01793799670703053 0.04587491869383961 -0.39924707789769026
-0.06135372578533186 -0.029358576184697945 -0.28131336209842367
-0.045093871288008645 -0.013214014303486924 -0.30425031020362403
