ply
format ascii 1.0
element vertex 20
property float x
property float y
property float z
end_header
-0.4196234469452299 1.1090601543181875 0.36948151846013866
-0.26267620254293017 -0.18649958250431262 0.860471409297552
0.3599201881237198 0.15413156340056805 -0.22599481382742273
0.08453579073380323 -0.16772432777091825 0.694871014242329
0.48061892575691123 0.07053024337005914 0.1427095992130272
0.5003387727493307 0.054064935656704574 0.3799999069781962
0.4513530832061771 0.01680649988405183 0.42665235915039323
0.06294161345584602 0.12824356273313267 -0.4624153523927208
0.0845613373882293 0.16493161855486244 -0.4815375277723619
-0.012355299792131933 0.0010066952294866365 -0.35011813663446073
0.05747534104068856 0.11304190618528563 -0.44381565297722775
-0.038969989160799474 -0.043147265977450715 -0.2871248814315498
-0.11208615821086122 -0.13629632523080873 -0.14969572652507188
-0.0440871672966021 -0.043600897626380634 -0.30188842021811674
-0.19424112187534187 -0.20301009798004532 -0.0514543973746774
-0.11201167659347222 -0.129405803365006 -0.18364138366607025
-0.1618288187912811 -0.17055693686304296 -0.11886933616119547
-0.21415442973061052 -0.2264897226986762 0.00582862605256677
-0.23715533363546062 -0.24047925975517087 0.047256014705743705
-0.2725554078799848 -0.26460695956052493 0.1292851808809288
