ply
format ascii 1.0
element vertex 20
property float x
property float y
property float z
end_header
-0.5634157945206761 1.1100376682629995 0.007944103116592686
-0.13679977252883663 -0.03575978151572167 0.7059463025565192
0.34579783269789005 0.2856782648602725 -0.6154180729173613
0.024667512832616173 -0.01402503368981432 0.6290756972731164
0.2518091504383691 0.06743851818858262 0.496988983026869
0.36199051193906234 0.13515245391540512 0.41810306708186035
0.6406411723902504 0.4146632573463675 0.17283448915427235
-0.17352115366893398 -0.2040433783679156 0.33218878047170775
-0.08464011252365951 -0.19486744175700807 -0.10330756497776733
-0.12596332313531775 -0.21689567037532917 0.12639288492105952
-0.12099644321954792 -0.21473727128103617 0.11667315234576232
-0.12987394660902837 -0.21464870748597836 0.15663419166883133
-0.12353561368863443 -0.20955417494595613 0.14426983316944567
-0.06544368360459119 -0.1757601770194383 -0.18983926106838764
0.02765205879571181 -0.005801352535202737 -0.5563218998521867
-0.06650802979126831 -0.1645451240895924 -0.215451509876681
-0.009204763972217717 -0.06930046687536603 -0.45650056437303543
0.007988937599851005 -0.04392106376177153 -0.5041619156659863
-0.008824420734311268 -0.09128814698229597 -0.41485013705772084
-0.051820118696728555 -0.15782237189120069 -0.2512005589969105
