ply
format ascii 1.0
element vertex 20
property float x
property float y
property float z
end_header
-0.39107117214730563 -0.6617452135936577 1.003103033675437
-0.18002903101616785 0.662262807794322 0.6010075024059294
0.28234963856761214 -0.4239399560511426 -0.17139763468914404
0.13841336905695759 0.32272091825272714 0.16354657124120256
0.35319163127477166 0.16242339887992874 0.15961267008151891
0.3476223496412289 0.24834946267896835 0.24703320346853846
0.702735344534967 -0.22028475892468025 0.2728592303740394
-0.15331512277739548 0.1911392560146369 -0.06928072887411887
-0.05970772318287918 -0.13972101374848603 -0.23444156082489734
-0.1103100768207907 0.046474192478675104 -0.15955631036653217
-0.05809002958982574 -0.13737028395004117 -0.2319227007174779
-0.14374007964205138 0.16653758654736395 -0.08613253674118293
-0.02732485888972519 -0.26144755747528 -0.2633491642718423
-0.12842986438673754 0.10557257955489423 -0.12827148056824428
-0.06759579319633803 -0.10981145547821654 -0.22707512003116642
-0.11814478685467536 0.07032642793012654 -0.1481752043874575
-0.11816489474767403 0.07522718416062747 -0.14371937809223315
-0.09511765679834142 -0.011092787504468895 -0.18760540480449608
-0.06419146226191992 -0.12446304423804945 -0.23174571418421547
-0.10907978076370975 0.038842256671751375 -0.16448927269365526
