ply
format ascii 1.0
element vertex 20
property float x
property float y
property float z
end_header
-0.02855302371964091 0.9427484699004068 0.8430030239713876
-0.44144128579981345 -0.39350864859723134 0.6801779390012551
0.178139538994772 -0.21604862156219254 0.10769728221237863
-0.0585071122715383 -0.38253103477692135 0.3864292768119122
0.2781051118203527 -0.1868979246802807 0.10446352715783533
0.19005833405169684 -0.3314181454176398 0.3139921443067391
0.6411553592682524 -0.1037853412981325 0.2378313157260241
-0.15078509345567442 -0.03275618635148225 -0.13483873561459658
-0.09668639997491803 0.004004089210174861 -0.17254294466622952
-0.19735185010401723 -0.08711437010528082 -0.07653899651174143
-0.08006498428795697 0.02814007812106638 -0.19699974212622626
-0.053405505194014206 0.052784336010904334 -0.21705205289386784
-0.01589434889317125 0.09872043849520759 -0.2513819122833899
-0.0447140873515062 0.061993583159029454 -0.22487337020264234
-0.01937039224009064 0.08341331912067486 -0.2377555032750027
0.0755838685974171 0.17685201846896328 -0.2847989920572857
0.09551273278654146 0.21492933446362067 -0.3166993169185962
-0.005006572747380472 0.11258198794034055 -0.2599754643875297
-0.10911500606015237 0.0028012749173861365 -0.17404219977247742
-0.15765928341915825 -0.04490865701861403 -0.12609527847794516
