ply
format ascii 1.0
element vertex 20
property float x
property float y
property float z
end_header
0.025518543531151405 -0.19669611980483107 1.284716480037567
0.43958539995101087 0.2672382517344455 0.01859881855136053
-0.2011684734172658 0.11730616028383298 -0.05475250274248658
0.13206667088805907 0.27471381820617463 -0.035997294129973795
-0.005279238646413891 0.39413108207149666 0.0107733954382686
-0.043297668974192446 0.4487505705722661 0.041284713136700124
-0.3764394600662113 0.4531337422004464 0.11716058682519022
0.2825756748957923 -0.015208775277120537 -0.08682919692616568
0.05842922755370722 -0.11315754925217472 -0.11292426720627238
0.01417535328072806 -0.13435391341923972 -0.11280905543495746
-0.06403299005943947 -0.15667288066052215 -0.10782642650384888
0.16419380045545556 -0.06438442475045397 -0.10593151226988809
-0.15421860173490146 -0.18622051303625764 -0.09466707524450303
0.038166483778616866 -0.13210498664690967 -0.11192887889627443
-0.0720617330222412 -0.16568707842667862 -0.10839514359726561
0.029349373175160887 -0.12330769756425072 -0.11317466738383306
-0.15884352325585901 -0.19284779032196464 -0.09553412802217978
-0.018431966358172725 -0.14716199516634987 -0.11208329569697704
-0.028836913981047863 -0.15825697212959747 -0.11061372049465436
-0.06144995799393676 -0.1692129286123107 -0.1090668294398071
