ply
format ascii 1.0
element vertex 20
property float x
property float y
property float z
end_header
-0.1536308868541031 1.1057068568173944 0.6127524640201643
-0.03939238147102018 -0.2957188001016411 0.6050876783299227
0.2226732328380085 0.10567209592335293 -0.26386715489760937
0.055876036287667165 -0.28668727626347323 0.5323057691480748
0.2815616673774558 0.040023022777334785 -0.1623484822573103
0.219479651512652 -0.18852013283700822 0.23505392368505118
0.6527328607408315 0.0646601832027559 0.15024777899451902
-0.16649143800128774 -0.25166584651776414 0.2556444051000407
0.0040374980287734485 0.24462840164666239 -0.44908199712937386
-0.15494612708714467 -0.21875431629952558 0.1565683650598376
-0.02598871514550797 0.15569981648004344 -0.38275389738702076
-0.1386288994277627 -0.16747666905752454 0.03864853245960909
-0.07610478340318155 0.013094934572561162 -0.24090809501444846
-0.1036600682533613 -0.0734889231825747 -0.1253935537656914
-0.12075189244317727 -0.1152705472492496 -0.05922917502521837
-0.09034278331492701 -0.0287549412223455 -0.18853445079527797
-0.13270905334284547 -0.13451879731347774 -0.021402334408364646
-0.06692847429816588 0.04999525969478067 -0.28275507686628043
-0.10724599071280594 -0.08186012782612075 -0.11292369005644957
-0.059539453030096785 0.06323580675582087 -0.29711100919417605
