ply
format ascii 1.0
element vertex 20
property float x
property float y
property float z
end_header
-0.28416377430060413 1.229110097930667 0.09797525489383445
-0.10066749997906806 -0.021142676604666122 0.7017741750420058
0.3459963315253522 0.2987446474254552 -0.6864020054231937
0.14371159471390893 -0.048114265897086415 0.4886905998955437
0.20003914764509834 -0.07817410697184116 0.1809239233793599
0.22450517446105028 -0.016515595155783134 0.5020307033643872
0.6426984209985318 0.1827128202705414 0.1558087993993434
-0.19975317992637753 -0.1382161962548222 0.3965551378882752
-0.04503784107656498 -0.07751431818018374 -0.30225287393189804
-0.1624420681961673 -0.15734657304151112 0.15667319975937608
-0.06769246134077389 -0.10996872700774925 -0.21340507413976065
-0.0885850590920861 -0.12994916448330399 -0.1371109585306058
-0.08380411641119187 -0.13048031267762925 -0.13734662654180038
-0.1100098806597627 -0.1445935670160272 -0.06316974552070147
-0.05668095279748139 -0.10182668133541477 -0.24272557482948698
-0.10850786212567344 -0.14985090329676637 -0.0290687247910063
-0.0702294108774899 -0.11989873564870339 -0.1681735808140898
-0.09337279733878114 -0.1397275630221457 -0.08989299415627942
-0.05012236568543229 -0.09601801373354847 -0.2579884566695242
-0.03588139953648847 -0.0512301652994834 -0.35289517827377925
