ply
format ascii 1.0
element vertex 20
property float x
property float y
property float z
end_header
-0.12782347768602575 0.6519541714522081 1.089556268940836
0.6796894116086055 -0.3566375330485702 0.5029846396616532
-0.10737136924848448 -0.1361732084183155 -0.054512644244512694
0.051709286415299836 -0.29955051788586484 0.07914966960184046
-0.23486990039226177 -0.3337850694230298 0.13367064368792062
-0.3685710250040135 -0.36571302456819604 0.1733283161258418
-0.24368730547600814 -0.5038131379072164 0.3218055097676693
0.011170818377937085 0.11012008198250561 -0.18131803947167627
-0.00025934753360853604 0.11882852894569891 -0.1785954055031401
-0.11167988075576392 0.1840699127308364 -0.19701052777808545
-0.07177756804046552 0.16032894044770798 -0.1981125237562263
-0.03527710170386163 0.1395371016160239 -0.18449456758147129
0.1583833797038963 0.029053407564413262 -0.12855028623869166
0.02634558617517027 0.10233051815502205 -0.18064272163202094
0.04362658112354055 0.09388349590909899 -0.1753734353058563
0.10862534075081277 0.057929910444670996 -0.15081942088700306
0.059188155428437514 0.08492228684827027 -0.16935873135509194
0.1527993604103837 0.0317407939724631 -0.12935977634688658
0.04931988086250071 0.0900810924737954 -0.17308550561061006
-0.039540825016089805 0.14089224870847813 -0.1992614620744881
