ply
format ascii 1.0
element vertex 20
property float x
property float y
property float z
end_header
-0.12887566170513706 0.5184021867357768 0.8295740719042274
-0.047385563475771074 0.08501575709661534 0.512363356511418
0.13541109494537149 -0.03559412616975401 -0.032226866072563906
0.08139653740071781 -0.029898498413039102 0.2483248372904494
0.20232964460335068 -0.049777861267092154 0.08514758194698252
0.1910022611378829 -0.02695218669701884 0.20976242935669667
0.3852061625579078 0.0318972599528347 0.15507743632438797
-0.09430732536560044 -0.055569143534927416 -0.05343908522093252
-0.06719494976613576 -0.02460535577651509 -0.14905436293508048
-0.07138136527695087 -0.022698164360347342 -0.14034212842238122
-0.05440931814816528 -0.04596428748328827 -0.186887844551954
-0.06615195469134331 -0.04268359489353756 -0.1364947429353489
-0.05756187272909417 -0.029503370283749324 -0.17927898637481768
-0.053015645319806445 -0.03053693992778375 -0.17590016073540615
-0.05905412145107333 -0.0438976821359392 -0.15981156287668788
-0.06655978264921188 -0.04081954962507597 -0.15614024586434025
-0.046692814214339344 -0.03899134842325673 -0.1929798426967469
-0.06668649436390343 -0.03877595336723545 -0.15668660732331363
-0.05948098413627889 -0.03915004598525073 -0.15029682592988794
-0.0565878473524195 -0.03989709544141579 -0.17071045139470087
