ply
format ascii 1.0
element vertex 20
property float x
property float y
property float z
end_header
-0.11355311242193661 0.585310858680725 0.8339230971776445
-0.05895471790601861 0.017058990736910532 0.4737075145713283
0.16016217348731765 -0.026412041800854002 -0.039796185735077996
0.05297913196963615 -0.048791352377991724 0.2744960100574297
0.20752120629626222 -0.03776282710932322 0.06982065004851529
0.1634262574030435 -0.014558118368846263 0.2229497825398791
0.405143023080668 0.05074625132174159 0.15051041168077053
-0.10882994615443449 -0.04872012757994276 -0.029059519758750253
-0.06117093662387123 -0.036969992198685867 -0.1775463746506818
-0.0780541232482916 -0.03538044589317366 -0.11427016164757975
-0.05732301862801707 -0.05883617984814252 -0.1704320180920244
-0.08040974924255771 -0.03866913526875371 -0.12042056672072093
-0.04784646174755683 -0.02723837577447666 -0.18499638683287234
-0.061346276958832414 -0.035270553186727414 -0.16228332039269847
-0.056984321817318676 -0.04323316293439448 -0.16879923440201391
-0.057851741991419105 -0.02843072856864941 -0.18040424134182967
-0.043932380966881644 -0.05071828575347962 -0.1740150272270081
-0.058010583448431144 -0.030866310751156117 -0.18280280563456433
-0.061003542398876405 -0.04959464122688848 -0.1392147854603995
-0.043960878682484 -0.04166382209789106 -0.18136683817934574
