ply
format ascii 1.0
element vertex 20
property float x
property float y
property float z
end_header
-0.07342577784197665 0.5195056715223936 0.8489583213623342
-0.0798816980590067 0.058082974740231205 0.47865696562860577
0.16809265150826241 -0.04284640417675444 -0.009846688532718884
0.03718086499445422 -0.028257303985925488 0.26847324384752663
0.19973177514669285 -0.05889054670391897 0.06655652601545736
0.17122718242235457 -0.029183023713608786 0.2269619424727076
0.3932202817536055 0.005110374754344715 0.18611730096176
-0.11281541873685141 -0.0363739687060761 -0.033138280239795315
-0.06484456531911001 -0.05955332091462309 -0.16335965453759216
-0.06109806815560367 -0.013013555533342124 -0.15524892668867282
-0.06466751148981953 -0.040979673727813776 -0.16674073222435293
-0.06270777244213183 -0.029368155182623576 -0.1386823482725853
-0.04636359290531456 -0.04087877355424784 -0.17516092076157755
-0.06140414274815905 -0.016545122926220006 -0.1734348180190583
-0.05228825979648488 -0.04252178098755363 -0.17864178315203585
-0.06280376587487646 -0.029302875649287175 -0.1739503380355243
-0.055744186539783004 -0.02833048080323177 -0.1899332178748199
-0.06978833509002104 -0.01467967002876626 -0.16289089638323362
-0.05097311909079512 -0.038866898528473096 -0.18349425621199927
-0.05064654173543552 -0.033107465894503446 -0.17120143935442553
