ply
format ascii 1.0
element vertex 20
property float x
property float y
property float z
end_header
-0.10738057472352852 0.488395116137566 0.8340107790118845
-0.1067310734875918 0.11237559114938887 0.46934724609348927
0.17318640633388965 -0.037937993335074194 -0.018257551110165776
0.045763560175832385 0.006550402142610497 0.27380080162792786
0.209400129223145 -0.023262478474034717 0.11892144105973855
0.20645929290158016 0.014791439238900406 0.2303538765072281
0.4560589104441632 0.07326211598783672 0.1737203723905879
-0.11838176371988596 -0.045655014034587806 -0.054424003270532165
-0.07563477359742328 -0.05212516729038508 -0.16844409236542748
-0.0833051161468767 -0.02580859048271111 -0.13480845044934958
-0.06289412373673679 -0.06306649516761736 -0.16096205361556418
-0.07819821690723858 -0.049965465149563536 -0.13409858636543498
-0.05155916753229607 -0.05428366815343543 -0.2007063386727622
-0.06799134247561156 -0.05804946609450665 -0.1426362424801597
-0.04899727880424435 -0.052060453382897005 -0.19327761380654138
-0.06725881610695819 -0.028733661440657685 -0.1747424511555985
-0.05109186499720338 -0.057112820468417036 -0.1878780715664222
-0.05938936399699262 -0.04589946361505086 -0.1748021704181184
-0.05865963842757381 -0.05223092218394914 -0.18700189767557412
-0.053395184418448774 -0.049183005383414996 -0.16811499373920513
