ply
format ascii 1.0
element vertex 20
property float x
property float y
property float z
end_header
-0.12791845003699964 0.5498044722382697 0.830932246353298
-0.043446608414926445 0.03812699924462049 0.47662568252550136
0.15501862012009174 -0.06195565312448234 -0.015902386308212727
0.05147966347357473 -0.04369564001125528 0.24917152504270135
0.179684384555061 -0.05220341969144476 0.07325923026939245
0.19642871742333842 -0.010141940820517354 0.21355842054283503
0.3914504456445155 0.015373765266311694 0.18159492778242925
-0.09037586152232965 -0.018039740788807598 -0.06274156575365758
-0.0679812795069398 -0.034112657521821084 -0.1824366742238193
-0.0686308336618871 -0.010783785334664587 -0.13612969562322266
-0.05493308687211566 -0.026204997330733518 -0.18693313094852368
-0.060184546520871296 -0.011649552914642772 -0.14622846527939498
-0.056671779085627746 -0.02895130196446517 -0.18476335888761614
-0.0665665663262339 -0.027615338012193374 -0.15597780405334155
-0.05585613703975072 -0.037061586810412675 -0.17790319851740627
-0.05744562757101985 -0.05035548090180912 -0.15107028101853343
-0.053692620063848506 -0.04676897761920244 -0.17253181883717467
-0.0584365088018825 -0.04302247178882857 -0.14890587170779856
-0.050766471459941155 -0.05374517678863697 -0.1474326671108342
-0.0611554543322071 -0.04699751532528452 -0.15618511424662207
