ply
format ascii 1.0
element vertex 20
property float x
property float y
property float z
end_header
-0.09780508791270442 0.604996019460903 0.8039317480682411
-0.02345683167554292 -0.028958128948335386 0.49663931251311405
0.12557932477521447 -0.011577906862009785 -0.044085589886611806
0.04103719227954418 -0.0691112726981944 0.2744860343490897
0.18140003833868545 -0.03031254934855256 0.0497016662574251
0.155765441890683 -0.0426961417504545 0.23318544234776845
0.35974679288473743 0.03613461838417784 0.1531963415900912
-0.08087174776457194 -0.058785726239357954 -0.040259395189885874
-0.05281781810348871 -0.03151335473001413 -0.18154774032310705
-0.0616348502900125 -0.0406863663269724 -0.11979022572215595
-0.04864454961430819 -0.019422143238067954 -0.18012699842611388
-0.06420718637564263 -0.03203554601518834 -0.13137293177341164
-0.047307816287637375 -0.031289208323255074 -0.16385279597650496
-0.04884833022410565 -0.02512705395626066 -0.16007631972346967
-0.05642009558247005 -0.018010922733804193 -0.1741881899324616
-0.05623074670174057 -0.04125196725631669 -0.18029584202373916
-0.051922587802411505 -0.04252592375718118 -0.15689442150581864
-0.06180930330270734 -0.04021008281481115 -0.15602581518722095
-0.05467856421341549 -0.04456625998257091 -0.14647748734073945
-0.05687327431810535 -0.033050082863733794 -0.17614679211448894
