ply
format ascii 1.0
element vertex 20
property float x
property float y
property float z
end_header
-0.14260519448051234 0.5564296205804012 0.7755982081748409
0.00788389505427163 0.06741075357320882 0.4978761867095141
0.1479606863319575 -0.029100743976399404 -0.062096201844538526
0.08994611850915878 -0.017755195815868617 0.2362168519165814
0.1817813407036466 -0.07338973857554067 0.06398236035050874
0.20170824308285262 -0.020169374508663056 0.19033015065200964
0.40749359505773547 0.04475825187103405 0.13989608025700637
-0.08848527013875833 -0.040938547203309306 -0.0527595410323877
-0.07021025384837098 -0.03799148403756406 -0.17804058109730023
-0.07087891282607173 -0.022744695615826385 -0.12430338266297564
-0.07370525064397498 -0.0628219945314424 -0.14928954709545855
-0.0573469218102943 -0.03636528303380616 -0.1362810238737071
-0.06014522222208517 -0.04775688771578543 -0.15749079138950128
-0.07481542133658524 -0.04753118101365406 -0.1280949568086275
-0.07197130571968376 -0.05362079157991767 -0.1606637813938802
-0.06243009798596446 -0.02762547830311525 -0.1579248758756855
-0.062299933595928836 -0.04455254318239809 -0.16522291154048546
-0.06465529626427731 -0.023204919312802396 -0.1561123395842519
-0.07222701880193051 -0.05181683997880213 -0.14481947621471292
-0.06499777906518471 -0.031212927639749147 -0.13080042764694866
