ply
format ascii 1.0
element vertex 20
property float x
property float y
property float z
end_header
-0.13870275617174369 0.5752837985286047 0.8210165882365443
-0.012686326695099592 0.005378646105702234 0.4857761498989975
0.14607964390033293 0.0062241382614741485 -0.03936710845752263
0.08665971048606372 -0.06866661778667262 0.2648747668809965
0.20223379508653225 -0.03477607690268788 0.07172264649774343
0.20150134845913847 -0.044417067913917425 0.22044440610334376
0.3965370707169897 0.04571914169047874 0.17762129615899877
-0.0948829008708161 -0.05976367346426775 -0.05231494089180875
-0.07833417016620689 -0.04359123381088488 -0.16794232017842642
-0.0834759261811645 -0.03837709072367933 -0.1305223008272292
-0.060546732689776395 -0.03672837457746769 -0.16839518920901164
-0.0793797890063315 -0.03274329707357251 -0.1292646690276741
-0.06367921874431787 -0.04352396321163896 -0.18087011629216526
-0.08077808531019827 -0.043947747202594145 -0.14405432456259834
-0.050064979449974414 -0.04009012793698496 -0.16716722415890078
-0.06250440728736689 -0.03180811585647502 -0.16899168884632118
-0.04220872080761607 -0.021668942565090596 -0.18586336139943896
-0.0530532050186005 -0.02803685868266549 -0.16700112544760848
-0.06810933733133813 -0.0366473803276992 -0.16934637136573266
-0.06460501291850611 -0.027819156549961095 -0.17035511311218546
