ply
format ascii 1.0
element vertex 20
property float x
property float y
property float z
end_header
-0.10999938241432317 0.5134367657459005 0.8387896923626408
-0.009150515991947035 0.0713881197300789 0.4548494096956419
0.12916351200705797 -0.0651890793963948 -0.00016142713657595154
0.060355535654238894 -0.008677919811719415 0.23108418577964077
0.18402557891498578 -0.03835262296584265 0.05994071471277847
0.17566572745220832 0.026665581225946932 0.18914422146353488
0.3491061664505892 0.029780311149606716 0.18348205284220953
-0.08599739295681066 -0.03513735425642728 -0.054328865233517744
-0.05537282536471927 -0.06118979403122778 -0.1684968396800177
-0.0619154211278794 0.0004502691858777992 -0.13190113391925865
-0.06253930043416055 -0.06774029614004616 -0.1720042371379002
-0.06224772479890944 -0.020965862758275184 -0.14834015904695963
-0.05800858652033661 -0.046246086595681406 -0.17214712987350292
-0.05597043945132509 -0.03151732853530989 -0.16910962110835479
-0.061365280167123254 -0.047553224129494504 -0.1609047157324699
-0.054456228594618225 -0.051400007098371045 -0.1571596001453884
-0.05487290574176009 -0.04551709588172408 -0.14992102676478683
-0.05460256899701496 -0.041682010115045014 -0.15872585659845787
-0.05957767868323845 -0.03306184527554085 -0.15009862698259854
-0.05224026923491347 -0.047490520046310866 -0.16399103749665758
