ply
format ascii 1.0
element vertex 20
property float x
property float y
property float z
end_header
-0.10041928775546287 0.4161811133385167 0.9060631630409841
-0.05006130065323993 0.103889495194057 0.46110356782655293
0.14733699467485717 -0.08469319603363619 -0.04290128939255676
0.05887473705388829 0.008446050240531642 0.22619980410136528
0.1725979880044268 -0.09810235739889818 0.071747756317046
0.1926852806652678 -0.026853581487771675 0.2150524780203668
0.38273612804036117 -0.047083878975049294 0.19776194002143974
-0.08989256684643848 -0.021604853239744037 -0.07640335650106574
-0.06082504204247005 -0.0501100335717277 -0.14907677668337466
-0.07243653261273236 -0.017268842359868874 -0.1295464572298663
-0.054155319406369806 -0.03190622199391982 -0.17670753201457604
-0.06992891946322871 -0.023426987624203838 -0.12822895937564296
-0.0647130447247781 -0.022836324932043926 -0.1733259321241575
-0.07762076703961784 -0.0320967368683813 -0.14985217345146165
-0.05223906738088615 0.0024576028389186612 -0.1989170822017849
-0.05944344045937526 -0.011809898816627768 -0.16503945923177976
-0.05004119403971319 -0.006674216168750855 -0.18951869968813276
-0.05474488033972061 -0.02627451851941848 -0.15973475449760852
-0.04674578569494294 -0.002485978059415199 -0.17300440351566682
-0.05096397997982512 -0.027746635562567016 -0.1656718334200802
