ply
format ascii 1.0
element vertex 20
property float x
property float y
property float z
end_header
-0.2348238918052718 0.7991932087286209 0.9602852936825136
-0.002450788375683427 -0.5589058100564308 0.6683716351727611
0.2681175946371203 0.3736508023667525 -0.25038467067868847
0.139386767378081 -0.36078963650921253 0.2653377956743705
0.26021901082606586 0.18250942032412668 -0.17803534852335676
0.30986899988278793 -0.2970889187753341 0.28388198531650105
0.6371821696306645 0.17884965489334995 0.07288212358311744
-0.14698761445771572 -0.28733167381274677 0.08326078409333347
-0.08080414813135764 0.1355387244240387 -0.24148386293048138
-0.1153243812655063 -0.07150197737379486 -0.11873646902349566
-0.0844839693002499 0.11358091094864443 -0.22890208618753596
-0.11454584686856077 -0.07669226446718291 -0.11347655559025195
-0.08855633493506858 0.06067593505742194 -0.20209614663900116
-0.10307207292893206 -0.02085995295558116 -0.15160894289002466
-0.11932495664071462 -0.09736698994442224 -0.09928918976257758
-0.1105546027648407 -0.042095351119834756 -0.14035100418598068
-0.13337180969994517 -0.18441869311202452 -0.02442592632991349
-0.09357864245210108 0.058851787757076786 -0.2045741729625489
-0.11462441700383512 -0.07003558378994046 -0.12047522001946867
-0.07227106572493644 0.16423640741647486 -0.2601800217992718
