ply
format ascii 1.0
element vertex 20
property float x
property float y
property float z
end_header
-0.11361520481975089 0.5648774253838791 0.8147521763758211
-0.05598719986107141 0.0304427611908746 0.5003500780906972
0.1518854587569439 -0.029762394880603976 -0.025040551825487554
0.05915084125207455 -0.0391156984535942 0.2635992208046165
0.19351902825887582 -0.04428146581497739 0.08239786249418223
0.18635279089935738 -0.01783406442789698 0.21703378677714244
0.3997371577446988 0.03929507072154696 0.16993181937978666
-0.09823590780161662 -0.04990593462388325 -0.048260240828330185
-0.06438664218568708 -0.04597379713924021 -0.16697011132801712
-0.07186542095610013 -0.03516456419623211 -0.12494593071174276
-0.05736690548380572 -0.046756463092512225 -0.17181366143794846
-0.06775660465708523 -0.03336031763083926 -0.14100850711197696
-0.054813952362246815 -0.03631077925476919 -0.18031443604402925
-0.063470196210916 -0.035269004413115874 -0.15541349210645086
-0.05581579515963125 -0.039406390724253934 -0.17631853354252672
-0.05737839768316849 -0.029937795821469153 -0.1726122042505861
-0.05163134391650801 -0.0372847820689203 -0.18186985924679025
-0.06032001541761419 -0.03327637013485675 -0.16922004986210756
-0.0598494299456158 -0.041827332963588544 -0.16548987975538126
-0.05815226045113377 -0.03914810165554575 -0.16878748587086992
